<svg width="268" height="272" viewBox="0 0 268 272" fill="none" xmlns="http://www.w3.org/2000/svg">
<g clip-path="url(#clip0_6_16)">
<path d="M170.211 35.2629C195.374 44.4893 220.871 52.1232 230.024 74.5874C254.76 135.296 136.786 170.407 164.612 231.522C165.807 234.162 167.308 236.709 169.098 239.136C170.894 241.579 178.59 249.577 178.72 251.022C177.161 250.542 162.787 236.51 161.314 234.639C130.215 195.113 165.659 159.711 190.528 125.852C194.328 120.678 198.242 113.108 201.26 107.437C201.236 106.805 202.821 102.984 203.122 102.125C206.237 93.2444 205.804 84.3411 204.339 75.339C203.374 72.5586 201.583 67.3349 200.163 64.8632C194.416 54.8643 181.682 41.619 170.211 35.2629Z" fill="url(#paint0_linear_6_16)"/>
<path d="M204.339 75.339L205.661 75.1407C206.526 76.2392 206.748 77.5137 206.453 78.7885C205.982 80.8298 208.324 80.8935 207.468 82.6981L207.197 82.2468L207.297 82.8069L207.631 81.7729C208.369 82.7295 205.757 69.4228 205.725 69.1251C207.579 70.3368 206.205 72.4757 208.03 73.1212C208.547 71.308 206.916 72.1016 207.736 70.1991C208.908 70.533 210.086 72.3416 211.209 73.2774C215.169 76.5758 213.401 82.7452 213.999 86.8278L215.676 86.6162L219.874 89.6994C219.459 92.0612 214.031 100.946 211.795 102.145C209.783 101.23 210.22 98.8198 207.962 98.0171C205.87 98.5599 206.317 98.564 204.725 99.9919C204.14 102.068 203.426 105.583 202.148 107.307L201.26 107.437C201.236 106.805 202.821 102.984 203.122 102.125C206.237 93.2444 205.804 84.3411 204.339 75.339Z" fill="#6C4F84"/>
<path d="M74.7014 151.068L75.0869 152.107C74.1903 153.322 73.4049 154.376 72.6452 155.649C74.0577 158.539 77.8336 156.649 80.7417 157.3C83.5387 157.925 87.4161 166.188 89.182 166.805C90.4055 164.95 91.4433 161.43 92.974 160.581L93.6165 160.808C78.8815 185.845 72.1848 208.633 94.8813 232.966C102.314 240.934 110.101 244.953 120.205 250.57C91.5002 241.726 63.9486 229.235 56.05 204.134C49.6948 183.937 61.7122 167.567 74.7014 151.068Z" fill="#33446B"/>
<path d="M74.7014 151.068C77.5044 146.805 85.8162 138.619 89.7146 134.517C111.374 111.73 130.978 90.9778 119.62 60.9589C118.764 58.6972 117.312 55.9681 116.201 53.7461C129.765 69.9791 134.85 86.9729 129.627 106.123C128.378 110.637 126.483 115.027 123.977 119.212C121.522 123.416 95.4293 160.052 93.6164 160.808L92.974 160.581C91.4433 161.43 90.4055 164.95 89.182 166.805C87.4161 166.188 83.5387 157.925 80.7417 157.3C77.8336 156.649 74.0577 158.539 72.6452 155.649C73.4049 154.376 74.1903 153.322 75.0869 152.107L74.7014 151.068Z" fill="#5B88A4"/>
<path d="M141.395 114.905C144.177 114.94 159.056 121.701 164.3 121.569C166.062 121.524 176.692 122.934 177.894 123.537C179.187 125.924 171.443 141.3 168.132 143.392C166.88 143.529 164.599 143.825 163.019 143.832C152.825 143.877 135.348 136.759 132.164 129.128C131.567 127.697 135.736 124.591 137.315 123.291L135.21 117.877C137.182 117.058 139.475 115.855 141.395 114.905Z" fill="#33446B"/>
<path d="M124.678 139.104C127.107 139.348 136.235 144.706 139.034 145.774C145.946 148.412 153.368 150.042 160.524 152.392C157.856 155.741 150.541 166.922 148.092 168.444C139.068 170.152 119.78 164.628 113.912 158.713C110.259 155.031 117.491 147.424 118.968 142.714C120.361 141.667 123.079 140.092 124.678 139.104Z" fill="#36678F"/>
<path d="M146.954 90.2168C149.889 90.3811 154.121 91.2856 157.225 91.6349C167.332 92.7725 175.425 92.5834 185.363 91.1137C185.597 91.9902 185.814 92.8694 186.015 93.7508C187.257 99.2416 187.046 109.62 182.817 114.324C168.111 115.78 157.721 113.425 145.625 106.96L146.117 98.5959C144.898 97.8872 143.719 97.343 143.097 96.2658C143.086 94.775 145.7 92.0595 146.954 90.2168Z" fill="#6C4F84"/>
<path d="M174.658 58.1991C178.536 59.9678 185.889 75.6749 184.043 79.1166C180.126 86.4181 156.72 84.5687 149.234 82.9749C145.459 81.0996 145.873 77.145 143.133 72.9776C141.872 72.3827 140.727 71.775 139.511 71.131C138.448 69.7715 138.213 69.4707 138.246 67.8854C140.971 63.4356 153.546 65.4592 160.896 63.2469C167.584 61.2341 167.879 61.2943 174.658 58.1991Z" fill="#6C4F84"/>
<path d="M107.401 168.542C112.216 168.641 122.193 173.078 127.474 174.397C133.54 175.913 136.113 176.263 142.537 176.74C140.29 182.696 141.801 189.338 136.091 193.362C125.503 195.605 110.227 193.226 101.717 187.764C101.363 183.641 101.718 176.425 103.139 172.456C104.002 170.045 104.624 169.735 107.401 168.542Z" fill="#5B88A4"/>
<path d="M150.276 31.5473C153.011 32.6484 166.162 45.6217 165.445 48.4991C163.304 57.0863 143.685 56.5544 135.855 56.2362C126.707 55.3172 122.802 44.3852 117.525 38.1201C134.207 38.3976 137.01 39.7418 150.276 31.5473Z" fill="#6C4F84"/>
<path d="M103.356 199.352C105.936 199.423 110.833 200.326 113.515 200.797C121.977 202.286 126.525 202.817 135.268 202.545C135.8 208.277 138.399 213.442 137.952 218.897C137.852 220.123 136.298 220.635 135.03 221.266C129.376 222.278 114.45 221.566 108.288 221.153C104.191 216.804 97.6152 203.581 103.356 199.352Z" fill="#70A070"/>
<path d="M97.6549 77.5997C98.5407 79.3167 98.8705 79.6191 100.492 80.9778L102.027 81.355C100.89 84.6933 97.7291 87.021 97.2151 89.918C92.6301 98.445 64.8486 114.256 56.5308 124.529C49.1526 133.642 51.5859 135.983 47.3996 142.872C45.1331 108.477 80.0521 102.73 97.6549 77.5997Z" fill="url(#paint1_linear_6_16)"/>
<path d="M140.107 228.864C140.49 228.732 141.177 228.825 141.624 228.853C143.711 231.427 147.022 237.456 148.738 240.405C142.465 243.524 133.697 245.426 126.831 242.298C120.638 238.585 117.364 235.224 114.386 229.68C123.539 229.082 129.604 230.222 140.107 228.864Z" fill="#70A070"/>
<path d="M148.131 250.249C155.024 249.424 165.798 255.024 162.518 260.062C160.824 261.152 159.313 261.228 157.146 261.534C148.252 260.362 144.274 257.264 138.616 252.135C142.6 251.015 143.949 250.702 148.131 250.249Z" fill="#70A070"/>
<path d="M97.6549 77.5997C104.882 64.8305 104.247 57.8769 97.709 44.6333C96.4417 42.0668 93.4348 39.6311 92.8737 37.7327L93.5083 37.4551C100.098 41.9098 105.796 57.5245 106.413 64.1764C107.114 71.7301 104.05 84.3597 97.2151 89.918C97.7291 87.021 100.89 84.6933 102.027 81.355L100.492 80.9778C98.8705 79.6191 98.5407 79.3167 97.6549 77.5997Z" fill="#C3C4C4"/>
<path d="M106.547 24.9741C109.145 26.3195 109.373 37.2159 109.474 39.7748C107.667 37.6377 106.368 27.8303 106.547 24.9741Z" fill="#C3C4C4"/>
</g>
<defs>
<linearGradient id="paint0_linear_6_16" x1="246.282" y1="130.396" x2="136.371" y2="164.308" gradientUnits="userSpaceOnUse">
<stop stop-color="#6B3F6E"/>
<stop offset="1" stop-color="#999FA2"/>
</linearGradient>
<linearGradient id="paint1_linear_6_16" x1="83.8409" y1="120.026" x2="69.6234" y2="93.8698" gradientUnits="userSpaceOnUse">
<stop stop-color="#9B9F9E"/>
<stop offset="1" stop-color="#C0BFC2"/>
</linearGradient>
<clipPath id="clip0_6_16">
<rect width="268" height="272" fill="white"/>
</clipPath>
</defs>
</svg>
